PathFileType	4	(X/Y/Z)	/tmp/tmp4hfz6umo/results/MarkerData/levelground_ccw_fast_01_01.trc
DataRate	CameraRate	NumFrames	NumMarkers	Units	OrigDataRate	OrigDataStartFrame	OrigNumFrames
200	200	8	28	m	200	1533	3067
Frame#	Time	L_ASIS			L_Ankle_Lat			L_Heel			L_Knee_Lat			L_PSIS			L_Shank_Front			L_Shank_Rear			L_Shank_Upper			L_Thigh_Front			L_Thigh_Rear			L_Thigh_Upper			L_Toe_Lat			L_Toe_Med			L_Toe_Tip			R_ASIS			R_Ankle_Lat			R_Heel			R_Knee_Lat			R_PSIS			R_Shank_Front			R_Shank_Rear			R_Shank_Upper			R_Thigh_Front			R_Thigh_Rear			R_Thigh_Upper			R_Toe_Lat			R_Toe_Med			R_Toe_Tip		
		X1	Y1	Z1	X2	Y2	Z2	X3	Y3	Z3	X4	Y4	Z4	X5	Y5	Z5	X6	Y6	Z6	X7	Y7	Z7	X8	Y8	Z8	X9	Y9	Z9	X10	Y10	Z10	X11	Y11	Z11	X12	Y12	Z12	X13	Y13	Z13	X14	Y14	Z14	X15	Y15	Z15	X16	Y16	Z16	X17	Y17	Z17	X18	Y18	Z18	X19	Y19	Z19	X20	Y20	Z20	X21	Y21	Z21	X22	Y22	Z22	X23	Y23	Z23	X24	Y24	Z24	X25	Y25	Z25	X26	Y26	Z26	X27	Y27	Z27	X28	Y28	Z28

1534	7.67	-0.165003	0.963358	-5.81505	0.196506	0.0712533	-5.79756	0.269192	0.0511294	-5.76369	0.0179963	0.45818	-5.82033	-0.0056227	1.03198	-5.73074	0.084375	0.28025	-5.79466	0.110547	0.27487	-5.75391	0.0674344	0.332418	-5.76004	-0.118567	0.731105	-5.7772	-0.070857	0.742861	-5.72141	-0.119991	0.802395	-5.73381	0.125932	0.0120653	-5.87208	0.197078	0.0166118	-5.9689	0.16979	0.0372644	-5.95569	0.0250516	0.999654	-5.99597	0.187587	0.0969417	-6.10154	0.193804	0.0523654	-6.03209	0.0744334	0.528604	-6.11299	0.0837909	1.05133	-5.81799	0.146243	0.335832	-6.12329	0.177823	0.341214	-6.07197	0.160441	0.400285	-6.10149	0.059863	0.801508	-6.08018	0.117403	0.774157	-6.05246	0.119738	0.839368	-6.03197	0.165981	0.050286	-6.2108	0.0524571	0.0358325	-6.19962	0.0718609	0.0655638	-6.21039
1535	7.675	-0.169038	0.962521	-5.81831	0.197285	0.072122	-5.79816	0.27041	0.0525387	-5.76488	0.0171005	0.458108	-5.8212	-0.00825283	1.03177	-5.73724	0.0845259	0.280758	-5.79528	0.111008	0.275363	-5.75492	0.0677734	0.33314	-5.76081	-0.120653	0.73064	-5.77819	-0.0719266	0.743412	-5.72414	-0.121835	0.802279	-5.7359	0.126773	0.0121638	-5.87207	0.19687	0.0166242	-5.96939	0.169456	0.0371667	-5.95586	0.0179925	0.998571	-6.00272	0.170183	0.0947842	-6.12298	0.177107	0.0485265	-6.05458	0.0651678	0.528308	-6.12085	0.0792566	1.05073	-5.82638	0.133062	0.334909	-6.1375	0.165552	0.338533	-6.08655	0.148927	0.398736	-6.11421	0.0520069	0.800647	-6.08693	0.110079	0.773083	-6.06001	0.11272	0.838546	-6.04019	0.145079	0.0506188	-6.23262	0.0314053	0.038279	-6.21904	0.0511284	0.0675045	-6.22953
1536	7.68	-0.17305	0.961484	-5.82159	0.198215	0.0730126	-5.7988	0.271627	0.0539434	-5.76606	0.0161189	0.457997	-5.82256	-0.0109118	1.03138	-5.74364	0.0845067	0.281479	-5.79625	0.111619	0.276502	-5.75574	0.0681167	0.333879	-5.76165	-0.12249	0.730369	-5.77989	-0.0731567	0.743858	-5.72709	-0.123588	0.802206	-5.73841	0.127316	0.0120946	-5.87192	0.196746	0.0166368	-5.96981	0.16913	0.0369607	-5.95595	0.0110378	0.997477	-6.00945	0.152359	0.0929587	-6.14382	0.159797	0.0449839	-6.07649	0.0559695	0.527719	-6.1285	0.0742653	1.0498	-5.83499	0.11977	0.334145	-6.15126	0.153075	0.335909	-6.10069	0.137085	0.397023	-6.12639	0.0442926	0.799862	-6.09374	0.102869	0.772103	-6.06773	0.105856	0.837639	-6.04866	0.12376	0.0512719	-6.25369	0.0100192	0.0412254	-6.23758	0.0301672	0.0699025	-6.24799
1537	7.685	-0.177434	0.960704	-5.82524	0.199151	0.0739868	-5.79951	0.27286	0.0553127	-5.76724	0.0150943	0.457858	-5.82391	-0.0136344	1.03075	-5.74996	0.0844583	0.282191	-5.79738	0.112279	0.277592	-5.7567	0.0684041	0.334623	-5.76271	-0.124445	0.729864	-5.78261	-0.0745047	0.744278	-5.72998	-0.125519	0.802062	-5.74152	0.127849	0.0120082	-5.87164	0.196675	0.0166106	-5.97021	0.169059	0.0368794	-5.95617	0.00404451	0.996162	-6.01605	0.134087	0.0913731	-6.1639	0.141828	0.0417201	-6.09772	0.0467623	0.526986	-6.13597	0.0698246	1.04911	-5.84315	0.106282	0.333413	-6.16451	0.140416	0.33327	-6.11438	0.125205	0.395238	-6.1382	0.0367084	0.798751	-6.10053	0.0955591	0.770903	-6.07516	0.0991194	0.836517	-6.05653	0.102099	0.0521944	-6.27392	-0.0114622	0.044515	-6.2553	0.00922325	0.072983	-6.26585
1538	7.69	-0.181833	0.960036	-5.82905	0.200071	0.0749146	-5.8002	0.274181	0.0567755	-5.76844	0.0137763	0.457649	-5.82532	-0.0163906	1.02992	-5.75634	0.0845445	0.282649	-5.79815	0.112963	0.278477	-5.75793	0.0683659	0.335221	-5.76403	-0.1264	0.729278	-5.7859	-0.075937	0.744647	-5.73283	-0.127463	0.801916	-5.74492	0.128507	0.0120831	-5.87144	0.196637	0.01656	-5.97059	0.169124	0.0368979	-5.95648	-0.00292702	0.994748	-6.0225	0.115328	0.0899522	-6.1832	0.123226	0.0386236	-6.11819	0.0379159	0.526481	-6.14355	0.0668336	1.04908	-5.85012	0.0928202	0.332664	-6.17731	0.127833	0.33078	-6.12772	0.113533	0.393544	-6.14979	0.0292683	0.797503	-6.10728	0.088404	0.769632	-6.08256	0.0922883	0.835231	-6.06401	0.0803076	0.0535823	-6.29338	-0.033068	0.0481259	-6.27242	-0.0117823	0.0765889	-6.283
1539	7.695	-0.185827	0.959036	-5.83256	0.201051	0.075779	-5.80095	0.275481	0.0582224	-5.76965	0.0123231	0.457461	-5.82703	-0.0192007	1.02905	-5.7628	0.0845721	0.282963	-5.799	0.11341	0.279211	-5.75921	0.0683315	0.335733	-5.76531	-0.128513	0.728715	-5.78862	-0.07755	0.744953	-5.73568	-0.129559	0.801688	-5.74791	0.129328	0.0122173	-5.87145	0.196591	0.0164769	-5.971	0.169173	0.0368956	-5.95682	-0.009707	0.993398	-6.02905	0.0961778	0.0888007	-6.20172	0.104207	0.0359657	-6.13793	0.0292606	0.525987	-6.15123	0.0632485	1.04859	-5.85756	0.0794227	0.331961	-6.18971	0.115131	0.328339	-6.14062	0.101787	0.39174	-6.161	0.0219093	0.79616	-6.11403	0.0812928	0.768278	-6.09006	0.0853233	0.833837	-6.07144	0.0583193	0.0552887	-6.31197	-0.0548464	0.0519755	-6.28873	-0.0330647	0.0802835	-6.29934
1540	7.7	-0.189838	0.957849	-5.83607	0.20206	0.0766175	-5.80166	0.276695	0.0596618	-5.77084	0.011215	0.457349	-5.82881	-0.0221233	1.02814	-5.76933	0.084504	0.283306	-5.80011	0.113458	0.280038	-5.76033	0.0682784	0.336208	-5.76668	-0.13127	0.728257	-5.79073	-0.0795044	0.745143	-5.73909	-0.132246	0.801304	-5.75084	0.130165	0.0123944	-5.87151	0.196545	0.0163441	-5.9714	0.169188	0.0368201	-5.9571	-0.0164736	0.991953	-6.03556	0.0766845	0.0878179	-6.21941	0.08467	0.0336523	-6.15681	0.0207367	0.525338	-6.15894	0.0586607	1.04736	-5.86534	0.0660017	0.33127	-6.20167	0.102245	0.325892	-6.15314	0.0899983	0.389774	-6.17191	0.014444	0.794617	-6.12062	0.074268	0.766963	-6.09764	0.078148	0.832255	-6.07874	0.036098	0.0571519	-6.32962	-0.0767388	0.0560965	-6.30425	-0.0543656	0.0841637	-6.31486
1541	7.705	-0.194074	0.956793	-5.83987	0.202948	0.077443	-5.80227	0.27783	0.0610516	-5.77196	0.0099598	0.457137	-5.83061	-0.0251508	1.02712	-5.77585	0.0843974	0.283673	-5.80139	0.113459	0.281179	-5.76124	0.0682548	0.336676	-5.76797	-0.133826	0.727813	-5.79343	-0.0816082	0.745228	-5.7427	-0.134884	0.800932	-5.75424	0.131027	0.0125543	-5.87148	0.196544	0.0162148	-5.97177	0.169225	0.0367648	-5.95737	-0.0232408	0.990447	-6.042	0.0566795	0.0867109	-6.23612	0.06496	0.0318444	-6.17479	0.0119399	0.524188	-6.16641	0.0540436	1.04598	-5.8729	0.0525216	0.330568	-6.2132	0.0893247	0.323437	-6.16538	0.0782863	0.387856	-6.18266	0.0069426	0.79298	-6.12717	0.0671452	0.76553	-6.10513	0.0707565	0.830525	-6.0858	0.0137539	0.0591846	-6.34634	-0.0986449	0.060606	-6.31899	-0.0756429	0.0882214	-6.32954
